<svg width="73" height="90" viewBox="0 0 73 90" fill="none" xmlns="http://www.w3.org/2000/svg">
<path d="M48.05 85.336C47.625 84.24 47.305 83.529 46.724 83.012C45.415 83.819 44.249 84.384 43.078 84.782C41.441 85.338 39.638 85.614 37.563 85.628C37.502 85.63 37.439 85.63 37.378 85.63C22.26 85.631 10.689 72.534 6.318 60.318C5.4 57.754 4.211 53.886 4.478 49.909C4.783 45.371 6.021 40.763 7.22 36.306C7.785 34.205 8.369 32.032 8.833 29.937C9.508 26.883 10.274 24.191 11.175 21.706C12.728 17.424 14.653 13.829 17.061 10.715C19.532 7.521 22.473 5.173 25.567 3.927C29.512 2.337 34.58 3 37.25 3.538C41.674 4.428 45.819 6.32 49.828 8.15C52.506 9.373 55.275 10.638 57.601 12.631C62.274 16.64 64.34 22.864 65.875 28.994C67.123 33.969 68.165 39.065 68.975 44.141C69.364 46.581 69.701 49.145 69.482 51.671C70.123 51.405 70.755 51.239 71.385 51.198C71.473 51.192 71.563 51.188 71.654 51.188C71.9 51.188 72.115 51.238 72.33 51.289C72.499 49.711 72.593 48.109 72.593 46.485C72.592 22.333 58.775 0 36.301 0C13.817 0 0 22.333 0 46.486C0 70.499 19.116 90 36.301 90C40.457 90 44.725 88.85 48.809 86.779C48.575 86.47 48.361 86.125 48.199 85.715L48.05 85.336ZM68.145 52.379C68.521 49.736 68.16 46.968 67.74 44.338C66.937 39.297 65.902 34.238 64.664 29.297C63.179 23.368 61.195 17.359 56.786 13.578C54.596 11.701 51.908 10.473 49.31 9.286C45.365 7.485 41.285 5.624 37.003 4.763C35.64 4.489 33.623 4.179 31.482 4.179C29.645 4.179 27.717 4.408 26.035 5.085C23.146 6.249 20.386 8.459 18.05 11.478C15.722 14.488 13.858 17.972 12.351 22.13C11.468 24.564 10.717 27.204 10.054 30.204C9.585 32.326 8.996 34.514 8.428 36.629C7.245 41.027 6.022 45.575 5.726 49.99C5.535 52.84 6.097 55.986 7.495 59.893C11.857 72.086 23.514 84.375 37.389 84.377C37.445 84.377 37.499 84.377 37.556 84.375C39.494 84.362 41.168 84.107 42.677 83.596C43.663 83.261 44.662 82.78 45.759 82.125C45.582 81.836 45.488 81.503 45.509 81.151C45.551 80.513 45.942 79.959 46.528 79.705C49.438 78.444 51.843 77.1 53.838 75.635C54.656 74.813 55.462 73.948 56.253 73.04C56.096 72.304 56.066 71.582 56.196 70.901C56.398 69.842 56.929 69.309 57.339 69.048C57.476 68.96 57.614 68.913 57.754 68.851C57.764 68.783 57.761 68.71 57.774 68.645C57.976 67.585 58.507 67.053 58.917 66.792C58.985 66.747 59.057 66.73 59.127 66.691C59.139 66.462 59.148 66.232 59.19 66.011C59.392 64.952 59.922 64.419 60.333 64.157C60.611 63.98 60.896 63.873 61.183 63.803C61.73 59.676 63.847 55.763 67.097 53.136C66.842 53.058 66.655 52.828 66.655 52.547C66.655 46.577 60.595 44.894 60.534 44.879C60.241 44.801 60.047 44.523 60.072 44.221C60.099 43.919 60.339 43.679 60.639 43.652C63.929 43.36 65.096 40.324 65.145 40.194C65.265 39.871 65.624 39.708 65.947 39.825C66.271 39.944 66.437 40.302 66.318 40.625C66.271 40.756 65.301 43.318 62.679 44.424C64.769 45.508 67.905 47.908 67.905 52.547V52.549C67.983 52.498 68.065 52.432 68.145 52.379ZM33.186 18.346C33.287 18.016 33.636 17.832 33.966 17.93C34.669 18.143 35.399 18.252 36.131 18.238C36.297 18.236 36.466 18.228 36.595 18.183C36.979 18.048 37.231 17.503 37.437 17.003C37.569 16.684 37.936 16.534 38.252 16.663C38.572 16.795 38.724 17.16 38.593 17.479C38.284 18.23 37.88 19.057 37.007 19.362C36.707 19.466 36.403 19.484 36.145 19.487C36.109 19.487 36.072 19.487 36.036 19.487C35.212 19.487 34.394 19.365 33.602 19.125C33.272 19.025 33.086 18.676 33.186 18.346ZM29.689 19.958C31.291 19.61 32.857 20.031 34.369 20.435C34.794 20.549 35.219 20.664 35.643 20.759C36.332 20.913 37.224 21.059 37.995 20.816C38.882 20.535 39.557 19.8 40.349 18.868C40.572 18.606 40.966 18.572 41.23 18.797C41.494 19.02 41.525 19.415 41.301 19.678C40.575 20.532 39.672 21.596 38.371 22.008C37.938 22.145 37.495 22.197 37.067 22.197C36.453 22.197 35.865 22.091 35.369 21.979C34.929 21.88 34.488 21.763 34.046 21.644C32.614 21.261 31.262 20.901 29.953 21.181C29.618 21.257 29.284 21.039 29.21 20.702C29.137 20.364 29.351 20.031 29.689 19.958ZM21.379 23.037C21.379 23.037 20.927 23.36 20.669 23.844C20.669 23.844 21.218 23.49 24.026 25.071C24.026 25.071 14.6 25.555 13.599 31.204C13.599 31.204 12.792 29.654 13.18 28.621C13.18 28.621 11.372 30.3 11.437 31.01C11.437 31.01 10.436 21.358 21.379 23.037ZM15.83 44.622C15.288 44.662 14.696 44.753 14.074 44.892C14.07 44.893 14.065 44.891 14.061 44.892C13.603 45.021 7.973 46.719 7.973 52.551C7.968 52.655 7.648 58.895 13.345 62.954C13.626 63.154 13.692 63.545 13.491 63.826C13.369 63.996 13.177 64.088 12.981 64.088C12.855 64.088 12.729 64.051 12.619 63.973C6.338 59.494 6.705 52.793 6.723 52.51C6.723 47.901 9.857 45.509 11.946 44.427C9.325 43.321 8.357 40.761 8.309 40.63C8.19 40.306 8.356 39.949 8.68 39.83C9.004 39.712 9.362 39.876 9.482 40.199C9.53 40.328 10.689 43.327 13.939 43.647C14.458 43.536 14.956 43.46 15.432 43.412C14.622 42.064 14.189 40.515 14.189 38.953C14.189 34.604 17.982 31.812 22.796 31.812C27.621 31.812 32.952 35.382 32.952 40.329C32.952 43.019 30.352 45.619 26.771 46.762C26.766 46.762 26.761 46.762 26.755 46.762C26.022 47.038 25.345 47.158 24.714 47.158C23.24 47.158 22 46.543 20.786 45.941C19.352 45.227 17.863 44.482 15.83 44.622ZM27.09 53.745C27.437 54.301 28.253 55.21 29.727 55.102C30.085 55.076 30.372 55.333 30.398 55.678C30.424 56.023 30.166 56.323 29.822 56.348C29.709 56.357 29.596 56.362 29.485 56.362C28.061 56.362 26.816 55.663 26.03 54.409C25.09 52.908 25.036 50.984 25.896 49.51C26.446 48.565 27.869 47.013 31.208 47.144C31.553 47.159 31.821 47.452 31.805 47.795C31.79 48.14 31.506 48.417 31.154 48.394C29.156 48.305 27.68 48.926 26.976 50.137C26.358 51.2 26.404 52.648 27.09 53.745ZM31.062 75.213C27.906 78.085 23.456 74.687 24.922 71.763C25.347 72.067 25.792 72.32 26.257 72.553C26.409 72.633 26.53 72.765 26.58 72.928C26.702 73.271 26.914 73.494 27.157 73.494C27.258 73.494 27.36 73.452 27.45 73.39C27.612 73.26 27.834 73.22 28.037 73.281C28.047 73.281 28.067 73.291 28.078 73.291C28.917 73.523 29.777 73.654 30.627 73.777C31.042 73.837 31.456 73.897 31.871 73.937C31.709 74.424 31.446 74.868 31.062 75.213ZM32.003 73.412C32.003 73.423 32.003 73.442 31.993 73.452C31.568 73.371 31.154 73.281 30.739 73.179C29.93 72.967 29.151 72.684 28.383 72.391C28.312 72.371 28.231 72.329 28.14 72.3C27.958 72.238 27.807 72.088 27.746 71.895C27.635 71.562 27.412 71.319 27.16 71.319C27.049 71.319 26.937 71.37 26.846 71.451C26.664 71.612 26.401 71.663 26.169 71.562C26.128 71.551 26.098 71.541 26.058 71.522C25.694 71.379 25.329 71.229 24.966 71.066C24.278 68.233 27.838 66.585 28.455 68.648C28.566 69.012 28.88 69.276 29.264 69.256C31.77 69.093 32.468 70.691 32.003 73.412ZM41.055 57.775C40.855 57.93 40.677 58.203 40.469 58.52C39.881 59.418 39.092 60.626 36.852 60.626C36.68 60.626 36.499 60.619 36.309 60.605C33.664 60.394 32.917 58.923 32.422 57.949C32.266 57.641 32.13 57.375 31.979 57.224C31.735 56.98 31.735 56.583 31.979 56.339C32.223 56.095 32.619 56.095 32.863 56.339C33.155 56.63 33.34 56.996 33.537 57.382C33.992 58.278 34.462 59.203 36.408 59.357C38.325 59.503 38.861 58.696 39.424 57.836C39.668 57.46 39.922 57.071 40.287 56.788C40.559 56.573 40.952 56.626 41.165 56.897C41.378 57.17 41.328 57.563 41.055 57.775ZM34.702 41.938C35.357 41.432 36.128 41.059 36.931 40.859C37.327 40.76 37.916 40.658 38.492 40.88C39.058 41.102 39.405 41.546 39.708 41.938C39.811 42.07 39.913 42.202 40.023 42.321C40.259 42.574 40.245 42.969 39.992 43.204C39.872 43.316 39.719 43.372 39.566 43.372C39.399 43.372 39.232 43.305 39.11 43.173C38.973 43.027 38.846 42.865 38.721 42.704C38.487 42.401 38.283 42.14 38.038 42.044C37.854 41.971 37.596 41.981 37.231 42.071C36.595 42.229 35.984 42.525 35.465 42.925C35.191 43.136 34.798 43.085 34.589 42.813C34.378 42.542 34.429 42.149 34.702 41.938ZM34.828 38.853C35.311 38.477 35.839 38.155 36.395 37.898C36.582 37.812 37.015 37.613 37.483 37.754C37.704 37.821 37.868 37.945 38.013 38.069C38.416 38.412 38.778 38.805 39.085 39.238C39.285 39.52 39.219 39.909 38.939 40.11C38.829 40.188 38.702 40.225 38.578 40.225C38.383 40.225 38.189 40.134 38.067 39.962C37.819 39.614 37.528 39.296 37.202 39.02C37.126 38.954 37.073 38.961 36.92 39.033C36.45 39.25 36.003 39.522 35.594 39.839C35.322 40.052 34.928 40.002 34.718 39.729C34.506 39.458 34.555 39.065 34.828 38.853ZM40.581 24.464C39.369 25.081 38.007 25.394 36.644 25.394C35.576 25.394 34.507 25.201 33.513 24.813C33.039 24.627 32.575 24.398 32.112 24.168C31.151 23.691 30.242 23.24 29.287 23.24H29.278C28.377 23.242 27.45 23.672 26.633 24.049C26.321 24.195 25.948 24.058 25.803 23.745C25.657 23.432 25.794 23.06 26.108 22.915C27.042 22.483 28.099 21.993 29.275 21.99H29.288C30.536 21.99 31.62 22.529 32.668 23.049C33.098 23.262 33.528 23.476 33.968 23.648C35.904 24.406 38.164 24.293 40.013 23.35C40.306 23.203 40.591 23.034 40.879 22.866C41.802 22.324 42.757 21.764 43.909 21.759C45.498 21.698 46.788 22.819 47.953 23.913C48.204 24.149 48.218 24.545 47.981 24.796C47.744 25.049 47.348 25.06 47.097 24.823C46.078 23.867 45.071 23.009 43.928 23.009H43.915C43.099 23.013 42.326 23.466 41.509 23.945C41.202 24.124 40.894 24.305 40.581 24.464ZM47.839 55.285C46.988 56.648 45.622 57.407 44.054 57.407C43.935 57.407 43.813 57.402 43.689 57.392C43.345 57.368 43.086 57.068 43.112 56.723C43.138 56.378 43.432 56.12 43.781 56.147C45.024 56.245 46.118 55.683 46.779 54.623C47.516 53.445 47.563 51.945 46.899 50.805C46.119 49.463 44.454 48.784 42.211 48.872C41.874 48.894 41.576 48.619 41.562 48.273C41.547 47.929 41.814 47.637 42.16 47.623C45.845 47.463 47.386 49.155 47.98 50.176C48.873 51.713 48.818 53.719 47.839 55.285ZM51.826 47.388C46.359 47.388 41.669 43.945 41.669 40.328C41.669 35.378 47.006 31.806 51.826 31.806C56.646 31.806 60.434 34.604 60.434 38.951C60.434 43.164 57.465 47.388 51.826 47.388ZM62.177 28.987C62.241 28.277 60.434 26.599 60.434 26.599C60.821 27.632 60.014 29.181 60.014 29.181C59.014 23.532 49.588 23.048 49.588 23.048C52.396 21.466 52.944 21.821 52.944 21.821C52.685 21.337 52.234 21.014 52.234 21.014C63.178 19.335 62.177 28.987 62.177 28.987ZM50.342 36.821C48.809 36.821 47.565 38.064 47.565 39.597C47.565 41.13 48.809 42.373 50.342 42.373C51.874 42.373 53.117 41.13 53.117 39.597C53.117 38.064 51.874 36.821 50.342 36.821ZM27.061 39.597C27.061 38.064 25.818 36.821 24.285 36.821C22.752 36.821 21.509 38.064 21.509 39.597C21.509 41.13 22.752 42.373 24.285 42.373C25.818 42.373 27.061 41.13 27.061 39.597ZM58.666 76.899C56.036 79.388 52.489 81.909 51.27 82.753C52.24 83.745 52.809 85.077 53.812 86.057C54.024 86.265 54.3 86.434 54.59 86.434C54.617 86.434 54.644 86.432 54.671 86.428C54.859 86.408 55.032 86.317 55.191 86.213C57.022 85.047 58.376 82.938 59.376 81.061C59.911 80.059 60.375 79.022 60.802 77.969C60.852 77.85 60.898 77.727 60.945 77.606C60.246 77.549 59.541 77.411 58.888 77.049C58.809 77.006 58.741 76.947 58.666 76.899ZM50.093 83.209C50.069 83.037 50.018 82.322 50.223 82.111L50.15 82.004C50.207 81.965 54.643 78.957 57.719 76.073C57.415 75.72 57.134 75.31 56.889 74.832C56.873 74.8 56.864 74.768 56.849 74.736C54.064 77.359 50.586 79.308 47.023 80.854C46.708 80.991 46.655 81.435 46.952 81.612C48.37 82.463 48.79 83.81 49.361 85.255C49.639 85.962 50.173 86.704 50.997 86.766C51.005 86.767 51.015 86.768 51.022 86.768C51.055 86.768 51.089 86.76 51.11 86.735C51.129 86.712 51.129 86.678 51.127 86.649C51.08 85.839 50.742 85.135 50.44 84.4C50.284 84.019 50.15 83.618 50.093 83.209ZM72.877 53.875C72.857 53.439 72.797 52.955 72.462 52.676C72.24 52.492 71.944 52.44 71.654 52.44C71.591 52.44 71.529 52.442 71.468 52.447C70.165 52.535 68.98 53.232 67.959 54.045C64.954 56.437 62.986 60.04 62.446 63.834C63.31 64.108 63.886 64.84 64.291 65.364C64.38 65.479 64.464 65.591 64.549 65.688C64.613 65.763 64.693 65.825 64.766 65.891C66.19 64.508 67.462 62.977 68.541 61.294C68.731 60.996 68.934 60.654 68.911 60.381C68.891 60.142 68.684 59.883 68.383 59.722C68.027 59.532 67.573 59.461 67.137 59.393C66.795 59.338 66.562 59.019 66.616 58.677C66.671 58.336 66.988 58.106 67.33 58.156C67.846 58.237 68.429 58.33 68.972 58.621C69.66 58.986 70.104 59.609 70.159 60.281C70.212 60.942 69.895 61.498 69.597 61.968C68.531 63.632 67.278 65.149 65.887 66.535C66.111 66.6 66.336 66.645 66.561 66.645C66.663 66.645 66.763 66.638 66.863 66.623C66.968 66.609 67.074 66.59 67.18 66.568C67.316 66.543 67.461 66.515 67.614 66.494C68.636 65.566 69.549 64.514 70.301 63.354C72.109 60.562 73.023 57.199 72.877 53.875ZM63.358 75.389C62.396 75.379 61.379 75.298 60.463 74.793C59.656 74.346 59.004 73.621 58.466 72.576C58.081 71.83 57.853 71.082 57.752 70.349C57.578 70.571 57.476 70.857 57.422 71.137C57.22 72.197 57.508 73.3 58.001 74.259C58.35 74.939 58.823 75.584 59.492 75.954C60.181 76.336 61.004 76.386 61.795 76.393C61.846 76.393 61.899 76.394 61.951 76.394C62.898 76.394 63.907 76.292 64.599 75.658C64.716 75.551 64.792 75.417 64.882 75.292C64.411 75.368 63.947 75.388 63.528 75.388L63.358 75.389ZM64.774 72.755C63.812 72.745 62.794 72.666 61.878 72.159C61.072 71.713 60.419 70.988 59.881 69.943C59.583 69.361 59.385 68.778 59.256 68.201C59.129 68.406 59.046 68.643 58.999 68.882C58.797 69.942 59.085 71.045 59.578 72.004C59.927 72.684 60.4 73.328 61.068 73.699C61.758 74.081 62.581 74.13 63.37 74.138C63.423 74.138 63.476 74.138 63.528 74.138C64.475 74.138 65.484 74.037 66.176 73.403C66.43 73.17 66.6 72.88 66.737 72.57C66.121 72.724 65.494 72.756 64.944 72.756L64.774 72.755ZM67.035 67.861C66.877 67.882 66.719 67.895 66.559 67.895C65.435 67.895 64.327 67.351 63.599 66.499C63.104 65.922 62.567 64.967 61.749 64.967C61.523 64.967 61.275 65.04 61.002 65.215C60.658 65.435 60.491 65.85 60.415 66.25C60.213 67.309 60.499 68.413 60.992 69.371C61.343 70.05 61.816 70.695 62.484 71.065C63.173 71.447 63.997 71.496 64.786 71.505C64.839 71.505 64.891 71.505 64.944 71.505C65.891 71.505 66.899 71.404 67.592 70.771C68.391 70.039 68.51 68.843 68.577 67.763C68.436 67.719 68.293 67.702 68.148 67.702C67.782 67.703 67.406 67.811 67.035 67.861Z" fill="black"/>
</svg>
